<svg width="30" height="21" viewBox="0 0 30 21" fill="none" xmlns="http://www.w3.org/2000/svg">
<rect y="0.107666" width="30" height="20" rx="10" fill="white"/>
<g clip-path="url(#clip0_3_2560)">
<path fill-rule="evenodd" clip-rule="evenodd" d="M14.4822 6.25665C14.9511 5.78781 15.587 5.52441 16.25 5.52441H17.5C17.7301 5.52441 17.9167 5.71096 17.9167 5.94108V7.60775C17.9167 7.83787 17.7301 8.02441 17.5 8.02441H16.25V8.85775H17.5C17.6283 8.85775 17.7495 8.91686 17.8284 9.01799C17.9074 9.11912 17.9353 9.25099 17.9042 9.37547L17.4876 11.0421C17.4412 11.2276 17.2745 11.3577 17.0833 11.3577H16.25V14.2744C16.25 14.5045 16.0635 14.6911 15.8333 14.6911H14.1667C13.9365 14.6911 13.75 14.5045 13.75 14.2744V11.3577H12.9167C12.6865 11.3577 12.5 11.1712 12.5 10.9411V9.27441C12.5 9.0443 12.6865 8.85775 12.9167 8.85775H13.75V8.02441C13.75 7.36137 14.0134 6.72549 14.4822 6.25665ZM16.25 6.35775C15.808 6.35775 15.384 6.53334 15.0715 6.8459C14.7589 7.15846 14.5833 7.58239 14.5833 8.02441V9.27441C14.5833 9.50453 14.3968 9.69108 14.1667 9.69108H13.3333V10.5244H14.1667C14.3968 10.5244 14.5833 10.711 14.5833 10.9411V13.8577H15.4167V10.9411C15.4167 10.711 15.6032 10.5244 15.8333 10.5244H16.758L16.9663 9.69108H15.8333C15.6032 9.69108 15.4167 9.50453 15.4167 9.27441V8.02441C15.4167 7.8034 15.5045 7.59144 15.6607 7.43516C15.817 7.27888 16.029 7.19108 16.25 7.19108H17.0833V6.35775H16.25Z" fill="#5582F9"/>
</g>
<defs>
<clipPath id="clip0_3_2560">
<rect width="10" height="10" fill="white" transform="translate(10 5.10767)"/>
</clipPath>
</defs>
</svg>
