<svg width="195" height="50" viewBox="0 0 195 50" fill="none" xmlns="http://www.w3.org/2000/svg">
<g id="FullLogo-CLR" clip-path="url(#clip0_12_50)">
<g id="Layer 1">
<g id="Group">
<g id="Group_2">
<path id="Vector" d="M36.3219 25.1558L35.7442 23.3584L35.1666 25.1585L33.2859 25.1558L34.8146 26.2547L34.2424 28.0279L35.7442 26.9291L37.2488 28.0279L36.6739 26.2547L38.2026 25.1558H36.3219Z" fill="#FFCA00"/>
<path id="Vector_2" d="M22.8453 32.9285L22.2676 31.1311L21.6927 32.9312L19.812 32.9285L21.338 34.0247L20.7657 35.8006L22.2703 34.7018L23.7722 35.8006L23.1999 34.0247L24.726 32.9285H22.8453Z" fill="#FFCA00"/>
<path id="Vector_3" d="M30.6153 30.8597L30.0403 29.065L29.4627 30.8624L27.582 30.8597L29.108 31.9586L28.5358 33.7318L30.0403 32.6357L31.5449 33.7318L30.9699 31.9586L32.4987 30.8597H30.6153Z" fill="#FFCA00"/>
<path id="Vector_4" d="M0 3.85546L0.00806018 3.71575L0.0806018 3.44976L0.204191 3.24557L0.577646 3.00914L0.634068 2.79151L0.698549 2.64911L0.918861 2.73509L1.072 2.90704L1.19291 3.11661L1.33262 3.2993L1.54218 3.39602L1.76518 3.37722L1.89414 3.259L1.9425 3.03869L1.93444 2.71897L1.87534 2.39388L1.80817 2.18968L1.80011 2.03654L1.91832 1.86996L1.98012 1.86459L2.1655 1.93982H2.24342L2.34014 1.84041L2.37238 1.71413L2.41268 1.60935L2.53627 1.56905L2.90973 1.73563L3.28049 2.05535L3.67007 2.29178L4.09726 2.21655L4.20473 2.10371L4.28533 2.11714L4.36325 2.1655L4.48684 2.15476L4.62386 2.18162L4.68565 2.13864L4.67222 2.05266L4.6346 1.95863L4.62654 1.89146L4.63192 1.77861L4.59968 1.63353L4.61042 1.50994L4.73401 1.46695L4.85492 1.50188L5.08866 1.65234L6.295 2.11177L6.66577 2.13326L7.09296 1.91026L7.15475 1.83235L7.76464 1.06126L8.17302 0.849007L8.39065 0.905428L8.71037 1.20903L8.86351 1.26814L9.05158 1.17141L9.7367 0.588394L9.99463 0.23106H10.4621L10.5965 0.196132L10.8893 -0.00268555L11.1365 0.0295552L11.1607 0.478239L11.389 0.591081L12.7969 0.577648L13.1757 0.754972L13.9038 1.29769L14.0731 1.48039L14.3041 1.82698L14.4304 2.01773L14.5191 2.09834L14.7663 2.4906L15.223 2.67061L15.6314 2.72166L16.2251 2.79688L16.4562 2.90704L16.6416 3.12467L16.7034 3.42827L16.4831 4.09189L16.647 4.21816L16.8995 4.22891L17.0742 4.18055L17.4234 3.88232L17.6088 3.85277L17.6894 4.13219L17.7297 4.45997L17.8479 4.65073L18.0414 4.71252L18.3047 4.65341L18.5465 4.5137L18.7238 4.35787L18.9146 4.23428L19.4331 4.17249L19.6265 4.19667L19.7448 4.33101L19.7663 4.65341L19.691 5.00269L19.5647 5.15852L19.4035 5.26599L19.2262 5.47287L19.151 5.7093L19.1725 5.94573L19.2988 6.08544L19.5352 6.03976L19.7098 5.84095L19.828 5.58571L19.9758 5.3842L20.2337 5.34928L20.4111 5.47287L20.5185 5.70124L20.5051 5.95648L20.317 6.16604L20.6368 6.83235L20.7711 6.97206L20.9995 7.13326L21.1177 7.12252L21.1607 6.964L21.166 6.67652L21.2305 6.38904L21.244 6.32187L21.4508 5.7093L21.7007 5.59377L22.0607 5.60989L23.0978 6.04245L23.8823 6.0532L24.2907 6.12574L24.6077 6.34068L24.683 6.47501L24.7098 6.59592L24.7179 6.71145L24.7448 6.82698L24.9248 7.26491L24.9597 7.70554L24.9785 7.80763L25.0537 7.91779L25.2391 8.09242L25.3117 8.2187L25.5427 8.61902L25.9054 9.01666L26.1445 9.20204L26.3057 9.32563L26.6496 9.46803L27.0607 9.39011L27.5551 8.73992L27.9124 8.56529L28.1085 8.57335L28.2671 8.63514L28.4068 8.76679L28.5384 8.98173L28.6271 9.24234L28.7265 9.81999L28.8152 10.0645L28.9737 10.1881L29.417 10.3224L29.5298 10.403L29.4922 10.6314L29.3203 10.8705L29.1107 11.0962L28.9737 11.2843L28.8716 11.5771V11.7625L28.9817 11.8726L29.3713 12.0124L29.5164 12.1467L29.5594 12.3267L29.425 12.5416L29.0892 12.9742L29.0274 13.4981L29.0381 14.0892L28.9226 14.7206L28.6298 15.2284L28.3396 15.6153L28.1918 16.0559L28.3369 16.7249L28.4095 16.8753L28.4417 16.9398L28.619 17.4422L28.7131 17.6196L28.9172 17.7781L29.0328 17.6787L29.1402 17.4987L29.3256 17.4154L29.4868 17.504L29.691 17.8533L30.0376 18.0844L30.1155 18.2617L30.1666 18.4605L30.2579 18.6378L30.4138 18.7292L30.5911 18.7668L30.7657 18.8447L30.9135 19.0623L30.9726 19.3256L30.978 19.5648L31.0129 19.8012L31.0505 19.863L31.1633 20.0537L31.3165 20.1908L31.4858 20.274L31.6658 20.2929L31.8485 20.2364L32.0446 20.0484L32.1225 19.8173L32.1736 19.5621L32.2891 19.3041L32.5175 19.2773L32.7431 19.2934L32.9554 19.3713L33.1435 19.5406L33.2966 19.8281L33.4014 20.2123L33.4121 20.5965L33.2832 20.8839L33.0038 21.0317L32.9635 21.3917L33.079 22.2595L33.0145 22.6679L32.8506 22.8641L32.6061 22.9339L32.2918 22.9661L32.2649 23.0145L32.2568 23.0656L32.2649 23.1166L32.2891 23.1703L32.633 23.8205L32.7297 23.9226L32.8533 23.8205L32.9527 23.6083L33.0844 23.4202L33.2966 23.3987L33.4471 23.5008L33.576 23.6754L33.6566 23.9011L33.6674 24.1537L33.5814 24.3794L33.4444 24.5352L33.3208 24.7179L33.2375 25.3332L33.1891 25.5508L33.1811 25.5911L33.1676 25.8087L33.2671 25.9914L33.3315 26.0075L33.6163 25.9807L33.7184 26.0371L33.8958 26.244L33.9925 26.3299L34.1752 26.3944L34.5459 26.424L34.7179 26.4884L34.9033 26.6738L35.1666 27.1064L35.3735 27.2568L35.7308 27.3133L36.0639 27.281L36.3837 27.3213L36.7061 27.5927L36.7598 27.7055L36.8485 28.0038L36.9022 28.0951L37.0016 28.1032L37.1064 28.0333L37.2165 27.9823L37.3375 28.0521L37.3643 28.1623V28.5142L37.3778 28.6647L37.4207 28.7856L37.5443 29.022L37.5954 29.1483L37.6115 29.4519L37.5201 30.4755L37.4745 30.6663L37.4207 30.8141L37.3804 30.9699L37.3724 31.1875L37.4127 31.3568L37.5524 31.6926L37.5793 31.8485L37.4476 32.2004L37.2004 32.2488L37.007 32.2703L37.0419 32.6357L37.2004 32.8318L37.6975 33.0414L37.719 33.0817L37.7754 33.2375L37.8157 33.2724L37.8882 33.2483L38.0253 33.1569H38.0897L38.1784 33.2294L38.2536 33.3289L38.3933 33.6136L38.3074 33.756L38.8259 34.1698L39.0167 34.3982L39.1295 34.2988L39.2988 34.2692L39.4815 34.3014L39.6319 34.3982L39.3579 34.9033L39.065 35.1934L38.5707 35.2794L37.2327 35.2015L37.05 35.2418L36.8485 35.3546L36.432 35.7254L36.2117 35.7603L35.986 35.5105L35.9645 35.3976L35.9699 35.0806L35.9511 34.9328L35.8974 34.7958L35.6636 34.425L35.0699 33.8581L34.9248 33.6056V34.065L34.7985 34.3068L34.5701 34.3955H34.2504L34.1779 34.503L34.2343 34.9033L34.151 35.1693L34.0005 35.3251L33.8152 35.3949L33.6217 35.3735L33.4444 35.266L33.2912 35.0591L33.1354 34.7018L32.9742 34.5567L32.8157 34.4976L32.461 34.4304L32.2891 34.3606L32.2246 34.245L32.2058 34.1214L32.2273 33.9952L32.2891 33.8662L32.3509 33.7507L32.3724 33.6378L32.3536 33.5304L32.2918 33.4283L32.0285 33.3853L32.0177 33.3906L31.7947 33.5169L31.5852 33.7507L31.0935 34.5083L30.9511 34.5137L30.7496 34.2155L30.4863 33.6486L30.3278 33.5948L30.129 33.928L30.094 34.1268L30.1478 34.4573L30.1397 34.605L30.0618 34.8146L30.0054 34.8388L29.9275 34.8146L29.7904 34.8657L29.382 35.3224L29.1322 35.4755L28.9414 35.3117V35.1397L29.0167 34.9839L29.1187 34.8307L29.1913 34.6722L29.2128 34.4788L29.2047 33.0924L29.1295 32.7405L28.9495 32.5094H28.9361H28.7077L27.7163 33.0736L27.5013 33.1542L27.101 33.3047L26.2601 33.8743L26.0317 34.2343L25.9618 34.6937L26.0532 35.2929L26.252 36.0639L26.2628 36.3219L26.1956 36.6147L26.1177 36.8485L26.1257 37.0715L26.3192 37.3294L26.6953 37.6867L26.9855 37.9608L27.0473 38.3154L26.9129 38.6996L26.6577 39.1349L26.2708 39.5755L26.1848 39.8334L26.2117 40.2337L26.4132 40.943L26.389 41.2628L26.1069 41.3971L24.1402 41.9156L23.9441 42.0446L23.8205 42.281L23.8125 42.5524L23.9683 43.1139L24.014 43.3853L23.9978 43.7104L23.9226 43.9199L23.7802 44.0623L23.5653 44.1859L23.2375 44.2585L23.1515 44.331L23.1462 44.425L23.1757 44.5701L23.1918 44.7394L23.1515 44.8952L22.856 45.0699L22.101 45.1451L21.921 45.4487L21.9532 45.5723L21.9989 45.7496L21.9291 45.8786L21.604 45.9833L21.4105 46.1123L21.2869 46.2466L21.0236 46.6389L20.9457 46.8243L21.0451 46.9398L21.2225 47.0446L21.3675 47.1951L21.4293 47.4207L21.4508 47.6464L21.4992 47.8694L21.655 48.087L21.3568 48.2294L21.2896 48.2912L21.2789 48.31L21.2171 48.4283V48.4659L21.2386 48.4954L21.3111 49.0435L21.2601 49.2343L21.0236 49.3444L20.3009 49.3149L19.4573 49.0919L18.6513 49.0301L18.0521 49.4841L17.9554 49.6749L17.8775 49.8764L17.8533 49.9892L17.5551 49.6265L17.4745 49.4627L17.4691 48.9199L17.453 48.8823L17.4261 48.8474L17.3831 48.748L17.1951 48.4041L16.9371 48.2026L16.3084 47.8667L16.4508 47.684L16.6362 47.504L16.8216 47.367L16.9694 47.3133H17.3401L17.5013 47.2354L17.4315 47.0258L17.453 46.7652L17.3536 45.1451L17.2569 44.9946L17.058 44.6077L16.8807 44.1161L16.8485 43.6486L16.8995 43.5599L17.05 43.4524L17.0822 43.3718L17.0607 43.31L16.9613 43.1032L16.9291 42.9823L16.9452 42.8533L16.9909 42.7297L17.015 42.6061L16.9694 42.4772L16.9022 42.3643L16.8753 42.2676L16.8538 42.0849L16.5798 41.2708L16.5422 41.0398L16.561 40.8786L16.7007 40.309V40.2203L16.6282 40.1719V40.0833L16.655 40.0027L16.7437 39.9436L16.8216 39.7152L16.8512 39.6265L17.0419 39.0758L17.1091 38.6754L17.238 38.2966L17.2031 38.1542L17.1359 38.0414L17.0661 37.9473L16.8592 37.6061L16.8377 37.4664L16.9721 37.4046L17.0983 37.3697L17.1252 37.281L17.0876 37.0016L17.1333 36.8888L17.2434 36.8297L17.3724 36.7894L17.4798 36.7329L17.6169 36.5986L17.77 36.2601L17.7888 36.2037L17.7781 36.0021L17.7324 35.6717L17.7593 35.5535L17.8963 35.5078L17.95 35.4379L18.0145 34.9382L18.0897 34.863L18.1703 34.828L18.1918 34.82L18.2456 34.7286L18.165 34.5056L18.3235 34.425L18.3906 34.3014L18.4041 34.1644V33.6566L18.388 33.5196L18.3477 33.5035L18.2993 33.5196L18.2536 33.4793L18.1059 33.1891L18.0817 33.0575L18.1059 32.4422L18.1462 32.3186L18.2509 32.2461L18.1542 31.9774L18.2106 31.741L18.3235 31.5368L18.3987 31.3595V31.1338L18.3745 30.9592L18.3638 30.8947L18.2483 30.4514L17.6169 29.1779V28.8689L17.1628 28.0844L16.9801 27.6222L16.9936 27.4906L17.0124 27.2945V27.1709L16.8861 27.0097L16.8995 26.8135L16.8915 26.6255L16.7034 26.4965L16.8001 26.2466L16.7947 26.2063L16.7652 25.9592L16.5449 25.3573L16.3917 25.0779L16.0424 24.6319L16.029 24.6158L15.9269 24.3418L15.7039 24.4519L15.4594 24.3364L15.1961 24.1671L14.9221 24.1134V23.8743L14.777 23.748L14.4573 23.5384L14.1134 23.1542L14.0086 23.0763L13.9011 23.0414L13.8501 22.993L13.9199 22.8721V22.7593L13.431 22.4933L13.2966 22.3079L13.4229 22.2676L13.4444 22.1977L13.4121 22.0983L13.3826 21.9694L13.3638 21.9586L13.2268 21.5046L12.942 21.1392L12.8211 20.9296L12.8345 20.7227L12.6061 20.3197L12.4879 20.1908L12.2058 20.1209L12.1171 20.0645L12.0312 19.9919L11.9129 19.9167L11.6093 19.8469L11.5207 19.8012L11.3756 19.5567L11.1042 18.9038L10.978 18.7937L10.9511 18.7695L10.7926 18.662L10.8812 18.1488L10.6797 17.9742L10.7147 17.7781L10.7577 17.6061L10.8195 17.4772L10.9108 17.4046L10.8302 17.2434L10.6878 17.1118L10.5185 17.0124L10.3654 16.9506L10.3466 16.9613L10.0564 16.9506L9.99194 16.9183L9.94895 16.878L9.89253 16.8431L9.79312 16.8297L9.6749 16.7249L9.60236 16.4804L9.52176 16.0317L9.49221 16.021L9.36862 16.0048L9.32563 15.9753L9.30145 15.9027V15.7523L9.28802 15.6932L9.25309 15.5884L9.20204 15.3761L9.18055 15.2848L9.1698 15.2364L8.81784 15.1021L8.50349 14.7797L7.77002 13.8044L7.51209 13.3611L7.40999 12.993L7.67061 12.9393V12.8345L7.60881 12.7136L7.62762 12.5336L7.59269 12.3939L7.58463 12.367L7.52821 12.3106L7.32671 12.1628L7.28372 12.0876L7.22998 11.9452L7.10371 11.6926L6.94788 11.4481L6.81354 11.3353L7.20043 11.0962L7.11445 10.9538L6.99086 10.892L6.85384 10.8517L6.73563 10.763L6.74369 10.6582L6.72488 10.1397L6.73294 10.0645L6.52875 9.81999L6.27351 9.67491L6.14992 9.52176L6.34874 9.2504V9.14562L6.27888 9.10801L6.04245 8.91725L6.17679 8.79635L6.2547 8.64858L6.24395 8.49275L6.1123 8.34229L5.96185 8.42827L5.85975 8.19989L5.71198 7.98495L5.42182 8.11392L5.39495 8.06556L5.37345 8.00914L5.35733 7.94465L5.34659 7.8748L5.57496 7.77002V7.64374L5.27942 7.47179L5.00806 7.22998L4.81193 6.90489L4.72864 6.49113L4.75819 6.3971L4.87641 6.24396L4.88178 6.16067V6.14723L4.82268 6.06126L4.72058 5.97528L4.62386 5.92961L4.48415 6.04782L4.2719 5.97528L3.96292 5.7899V5.68512L4.18323 5.67168L4.3122 5.54541V5.40032L3.92262 5.25255L3.83933 5.07254L3.78291 4.87641L3.6432 4.75282L3.54111 4.84954L3.41214 5.03761L3.30199 5.09672L3.25631 4.80924L3.18646 4.68297L2.71091 4.19398L2.59001 4.26921L2.33208 3.94412L2.14132 3.84739L1.67652 3.94143L1.45352 3.89307L1.32993 3.63514L1.20903 3.82053L1.08544 3.79366L0.827512 3.56529L0.569586 3.57604L0.029554 3.83396L0 3.85546Z" fill="#2B63F8"/>
<path id="Vector_5" d="M6.7061 19.1376L8.20798 20.2337L7.63571 18.4605L9.16177 17.3616H7.28106L6.7061 15.5642L6.12845 17.367L4.24774 17.3616L5.7738 18.4605L5.20153 20.2337L6.7061 19.1376Z" fill="#FFCA00"/>
<path id="Vector_6" d="M12.9823 6.75712L14.4869 5.66093L15.9887 6.75712L15.4192 4.98388L16.9452 3.88501H15.0618L14.4869 2.08759L13.9092 3.88769L12.0285 3.88501L13.5546 4.98388L12.9823 6.75712Z" fill="#FFCA00"/>
<path id="Vector_7" d="M8.79368 7.79419L8.21872 9.5943L6.33533 9.59161L7.86139 10.6878L7.28912 12.4637L8.79368 11.3648L10.2983 12.4637L9.72598 10.6878L11.252 9.59161H9.36864L8.79368 7.79419Z" fill="#FFCA00"/>
<path id="Vector_8" d="M20.7657 4.66685L22.2676 3.57066L23.7695 4.66685H23.7722L23.1999 2.89361L24.726 1.79473H22.8453H22.8426L22.2676 0L21.6927 1.79742L19.812 1.79473L21.3353 2.89361L20.7657 4.66685Z" fill="#FFCA00"/>
<path id="Vector_9" d="M9.36864 25.1558L8.79368 23.3584L8.21872 25.1585L6.33533 25.1558L7.86139 26.2547L7.28912 28.0279L8.79368 26.9291L10.2983 28.0279L9.72598 26.2547L11.252 25.1558H9.36864Z" fill="#FFCA00"/>
<path id="Vector_10" d="M15.0752 30.8597L14.4976 29.065L13.9226 30.8624L12.0392 30.8597L13.5653 31.9586L12.9957 33.7318L14.4976 32.6357L16.0022 33.7318L15.4299 31.9586L16.956 30.8597H15.0752Z" fill="#FFCA00"/>
<path id="Vector_11" d="M40.2686 17.3401H38.3852L37.8103 15.5427L37.2353 17.3428L35.3519 17.3401L36.878 18.439L36.3084 20.2123L37.8103 19.1134L39.3122 20.2123L38.7426 18.439L40.2686 17.3401Z" fill="#FFCA00"/>
<path id="Vector_12" d="M34.2424 12.4395L35.7442 11.3434L37.2488 12.4395L36.6739 10.6663L38.2026 9.57013H36.3219L35.7442 7.77271L35.1666 9.57281L33.2859 9.57013L34.8146 10.6663L34.2424 12.4395Z" fill="#FFCA00"/>
<path id="Vector_13" d="M30.0618 2.09027L29.4869 3.89038L27.6035 3.885L29.1295 4.98388L28.5599 6.7598L30.0645 5.66093L31.5664 6.7598L30.9941 4.98388L32.5229 3.885H30.6368L30.0618 2.09027Z" fill="#FFCA00"/>
</g>
<g id="Group_3">
<g id="Group_4">
<path id="Vector_14" d="M57.0339 4.48688H62.0876C62.899 4.48688 63.6164 5.01079 63.8635 5.78188L66.964 15.4165H67.0151L70.0941 5.78725C70.3412 5.01348 71.0586 4.48956 71.87 4.48956H76.7195V20.9055H72.6276L72.7271 8.00649H72.676L69.0731 19.229C68.7534 20.2284 67.8238 20.9055 66.7733 20.9055C65.7254 20.9055 64.7985 20.2311 64.4761 19.2343L60.849 8.00649H60.798L60.8732 20.9055H57.0312V4.48688H57.0339Z" fill="#2B63F8"/>
<path id="Vector_15" d="M81.3353 12.6196C81.3353 7.35629 85.1773 4.237 90.1424 4.237C95.1075 4.237 98.9495 7.35629 98.9495 12.6196C98.9495 17.8829 95.1075 21.1526 90.1424 21.1526C85.1773 21.1526 81.3353 17.985 81.3353 12.6196ZM94.7072 12.6438C94.7072 9.37671 92.7351 7.45301 90.1424 7.45301C87.5497 7.45301 85.5777 9.37402 85.5777 12.6438C85.5777 15.9135 87.5497 17.9339 90.1424 17.9339C92.7351 17.9339 94.7072 15.9619 94.7072 12.6438Z" fill="#2B63F8"/>
<path id="Vector_16" d="M103.563 4.48688H107.655V17.6841H115.14V20.9028H103.563V4.48688Z" fill="#2B63F8"/>
<path id="Vector_17" d="M119.481 4.48688H126.093C131.333 4.48688 134.575 7.28107 134.575 12.6706C134.575 18.0602 131.507 20.9028 126.617 20.9028H119.481V4.48688ZM126.566 17.6841C128.837 17.6841 130.508 16.1365 130.508 12.668C130.508 9.1994 128.737 7.70289 126.316 7.70289H123.573V17.6814H126.566V17.6841Z" fill="#2B63F8"/>
<path id="Vector_18" d="M138.815 12.6196C138.815 7.35629 142.657 4.237 147.622 4.237C152.587 4.237 156.429 7.35629 156.429 12.6196C156.429 17.8829 152.587 21.1526 147.622 21.1526C142.657 21.1526 138.815 17.985 138.815 12.6196ZM152.187 12.6438C152.187 9.37671 150.215 7.45301 147.622 7.45301C145.03 7.45301 143.058 9.37402 143.058 12.6438C143.058 15.9135 145.03 17.9339 147.622 17.9339C150.215 17.9339 152.187 15.9619 152.187 12.6438Z" fill="#2B63F8"/>
<path id="Vector_19" d="M159.275 4.48688H163.939L168.329 17.2596H168.38L172.671 4.48688H176.862L171.507 18.5277C170.962 19.9597 169.589 20.9028 168.058 20.9028C166.523 20.9028 165.15 19.9544 164.605 18.5223L159.272 4.48688H159.275Z" fill="#2B63F8"/>
<path id="Vector_20" d="M189.062 17.5605H182.501L181.378 20.9028H177.187L182.609 6.85926C183.162 5.42992 184.538 4.48419 186.069 4.48419C187.603 4.48419 188.979 5.42723 189.53 6.85926L194.952 20.9028H190.185L189.062 17.5605ZM188.213 15.0162L185.793 7.83185H185.742L183.348 15.0162H188.213Z" fill="#2B63F8"/>
</g>
<g id="Group_5">
<path id="Vector_21" d="M57.0339 26.8781H64.9221V28.6325H59.1376V31.9291H63.7319V33.2966H59.1376V36.6631H65.0806V38.4175H57.0339V26.8807V26.8781Z" fill="#2B63F8"/>
<path id="Vector_22" d="M68.5707 34.0677V27.8184C68.5707 27.2999 68.9898 26.8807 69.5083 26.8807H69.7179C70.2364 26.8807 70.6556 27.2999 70.6556 27.8184V34.0328C70.6556 35.7872 71.8646 36.784 73.7399 36.784C75.6153 36.784 76.8243 35.7846 76.8243 34.0328V27.8184C76.8243 27.2999 77.2434 26.8807 77.762 26.8807C78.2805 26.8807 78.6996 27.2999 78.6996 27.8184V34.0677C78.6996 36.8377 76.7545 38.5922 73.6513 38.5922C70.5481 38.5922 68.568 36.8377 68.568 34.0677H68.5707Z" fill="#2B63F8"/>
<path id="Vector_23" d="M82.805 28.1596C82.805 27.453 83.3773 26.8807 84.0839 26.8807H87.8722C90.8356 26.8807 92.359 28.1596 92.359 30.2284C92.359 31.7195 91.7115 32.7351 90.3601 32.9796V33.0145C91.7625 33.2241 92.2891 34.2074 92.2891 35.5911V38.4149H90.1666V35.626C90.1666 34.4681 89.6938 33.8367 88.1516 33.8367H84.9087V38.4122H82.805V28.1542V28.1596ZM87.9071 32.4557C89.6078 32.4557 90.3439 31.7195 90.3439 30.4917C90.3439 29.3337 89.5379 28.6325 87.8533 28.6325H84.9087V32.4557H87.9071Z" fill="#2B63F8"/>
<path id="Vector_24" d="M95.884 32.5954C95.884 28.9307 98.5143 26.7034 101.862 26.7034C105.21 26.7034 107.859 28.9307 107.859 32.5954C107.859 36.2601 105.228 38.5922 101.862 38.5922C98.4955 38.5922 95.884 36.33 95.884 32.5954ZM105.72 32.5954C105.72 30.0189 104.003 28.4579 101.862 28.4579C99.7206 28.4579 98.0226 30.0189 98.0226 32.5954C98.0226 35.172 99.7394 36.8378 101.862 36.8378C103.984 36.8378 105.72 35.2418 105.72 32.5954Z" fill="#2B63F8"/>
<path id="Vector_25" d="M111.628 28.0307C111.628 27.3966 112.144 26.8807 112.778 26.8807H116.397C119.256 26.8807 120.938 28.3181 120.938 30.8947C120.938 33.4713 119.43 34.8388 116.66 34.8388H113.732V38.4149H111.628V28.028V28.0307ZM116.537 33.3504C118.063 33.3504 118.939 32.5793 118.939 31.0022C118.939 29.4251 118.009 28.6352 116.327 28.6352H113.732V33.3504H116.537Z" fill="#2B63F8"/>
<path id="Vector_26" d="M124.653 26.8781H132.542V28.6325H126.757V31.9291H131.351V33.2966H126.757V36.6631H132.7V38.4175H124.653V26.8807V26.8781Z" fill="#2B63F8"/>
<path id="Vector_27" d="M144.044 35.8195H138.662L137.681 38.4149H135.508L139.737 28.0333C140.022 27.3348 140.699 26.8781 141.454 26.8781H141.521C142.276 26.8781 142.953 27.3348 143.238 28.0333L147.45 38.4122H145.013L144.049 35.8168L144.044 35.8195ZM143.517 34.417L141.378 28.6674H141.343L139.186 34.417H143.517Z" fill="#2B63F8"/>
<path id="Vector_28" d="M150.881 26.8781H154.038L159.524 35.6448H159.559L159.524 26.8781H161.505V38.4149H159.014L152.861 28.6325H152.843L152.861 38.4149H150.881V26.8781Z" fill="#2B63F8"/>
<path id="Vector_29" d="M173.463 35.8195H168.082L167.101 38.4149H164.927L169.17 27.9957C169.444 27.3214 170.102 26.8781 170.83 26.8781H170.975C171.706 26.8781 172.362 27.3214 172.638 27.9984L176.865 38.4149H174.428L173.463 35.8195ZM172.937 34.417L170.798 28.6674H170.763L168.606 34.417H172.937Z" fill="#2B63F8"/>
<path id="Vector_30" d="M169.24 24.3848H169.242C169.506 24.374 169.75 24.5218 169.858 24.7636C169.992 25.0699 170.306 25.3278 170.897 25.3278C171.488 25.3278 171.805 25.0726 171.937 24.769C172.045 24.5245 172.289 24.374 172.555 24.3848C173.015 24.4036 173.315 24.8845 173.119 25.2983C172.818 25.9296 172.144 26.4858 170.897 26.4858C169.651 26.4858 168.979 25.9296 168.675 25.2983C168.477 24.8845 168.78 24.4036 169.24 24.3848Z" fill="#2B63F8"/>
</g>
</g>
</g>
</g>
</g>
<defs>
<clipPath id="clip0_12_50">
<rect width="194.952" height="50" fill="white"/>
</clipPath>
</defs>
</svg>
