<svg width="30" height="21" viewBox="0 0 30 21" fill="none" xmlns="http://www.w3.org/2000/svg">
<rect y="0.107666" width="30" height="20" rx="10" fill="white"/>
<g clip-path="url(#clip0_3_2562)">
<path fill-rule="evenodd" clip-rule="evenodd" d="M16.6667 8.85775C16.1142 8.85775 15.5842 9.07724 15.1935 9.46794C14.8028 9.85864 14.5834 10.3885 14.5834 10.9411V13.4411H15.4167V10.9411C15.4167 10.6096 15.5484 10.2916 15.7828 10.0572C16.0172 9.82278 16.3352 9.69108 16.6667 9.69108C16.9982 9.69108 17.3161 9.82278 17.5506 10.0572C17.785 10.2916 17.9167 10.6096 17.9167 10.9411V13.4411H18.75V10.9411C18.75 10.3885 18.5305 9.85864 18.1398 9.46794C17.7491 9.07724 17.2192 8.85775 16.6667 8.85775ZM16.6667 8.02441C15.8931 8.02441 15.1513 8.33171 14.6043 8.87869C14.0573 9.42567 13.75 10.1675 13.75 10.9411V13.8577C13.75 14.0879 13.9366 14.2744 14.1667 14.2744H15.8334C16.0635 14.2744 16.25 14.0879 16.25 13.8577V10.9411C16.25 10.8306 16.2939 10.7246 16.3721 10.6465C16.4502 10.5683 16.5562 10.5244 16.6667 10.5244C16.7772 10.5244 16.8832 10.5683 16.9613 10.6465C17.0395 10.7246 17.0834 10.8306 17.0834 10.9411V13.8577C17.0834 14.0879 17.2699 14.2744 17.5 14.2744H19.1667C19.3968 14.2744 19.5834 14.0879 19.5834 13.8577V10.9411C19.5834 10.1675 19.2761 9.42567 18.7291 8.87869C18.1821 8.3317 17.4402 8.02441 16.6667 8.02441Z" fill="#5582F9"/>
<path fill-rule="evenodd" clip-rule="evenodd" d="M10.4167 8.85775C10.4167 8.62763 10.6032 8.44108 10.8334 8.44108H12.5C12.7301 8.44108 12.9167 8.62763 12.9167 8.85775V13.8577C12.9167 14.0879 12.7301 14.2744 12.5 14.2744H10.8334C10.6032 14.2744 10.4167 14.0879 10.4167 13.8577V8.85775ZM11.25 9.27441V13.4411H12.0834V9.27441H11.25Z" fill="#5582F9"/>
<path fill-rule="evenodd" clip-rule="evenodd" d="M11.6667 6.35775C11.4366 6.35775 11.25 6.5443 11.25 6.77441C11.25 7.00453 11.4366 7.19108 11.6667 7.19108C11.8968 7.19108 12.0834 7.00453 12.0834 6.77441C12.0834 6.5443 11.8968 6.35775 11.6667 6.35775ZM10.4167 6.77441C10.4167 6.08406 10.9763 5.52441 11.6667 5.52441C12.357 5.52441 12.9167 6.08406 12.9167 6.77441C12.9167 7.46477 12.357 8.02441 11.6667 8.02441C10.9763 8.02441 10.4167 7.46477 10.4167 6.77441Z" fill="#5582F9"/>
</g>
<defs>
<clipPath id="clip0_3_2562">
<rect width="10" height="10" fill="white" transform="translate(10 5.10767)"/>
</clipPath>
</defs>
</svg>
