<svg width="217" height="55" viewBox="0 0 217 55" fill="none" xmlns="http://www.w3.org/2000/svg">
<g id="TextOnly-WHT" clip-path="url(#clip0_12_28)">
<g id="Layer 1">
<g id="Group">
<g id="Group_2">
<path id="Vector" d="M0 0.500488H7.94416C9.21961 0.500488 10.3473 1.32405 10.7358 2.53615L15.6096 17.6812H15.6898L20.5256 2.54038C20.9141 1.32405 22.0418 0.500488 23.3172 0.500488H30.9404V26.3053H24.5082L24.6645 6.02888H24.5842L18.9207 23.6699C18.4181 25.241 16.9568 26.3053 15.3055 26.3053C13.6584 26.3053 12.2013 25.2452 11.6945 23.6783L6.00141 6.02888H5.92116L6.03942 26.3053H0V0.500488Z" fill="white"/>
<path id="Vector_2" d="M38.2004 13.2846C38.2004 5.011 44.2398 0.107666 52.0446 0.107666C59.8494 0.107666 65.8888 5.011 65.8888 13.2846C65.8888 21.5582 59.8494 26.698 52.0446 26.698C44.2398 26.698 38.2004 21.7186 38.2004 13.2846ZM59.2201 13.3226C59.2201 8.18697 56.1201 5.16304 52.0446 5.16304C47.969 5.16304 44.8691 8.18275 44.8691 13.3226C44.8691 18.4624 47.969 21.6384 52.0446 21.6384C56.1201 21.6384 59.2201 18.5384 59.2201 13.3226Z" fill="white"/>
<path id="Vector_3" d="M73.1403 0.500488H79.5725V21.2457H91.3388V26.3053H73.1403V0.500488Z" fill="white"/>
<path id="Vector_4" d="M98.1638 0.500488H108.557C116.793 0.500488 121.891 4.89279 121.891 13.3649C121.891 21.837 117.068 26.3053 109.381 26.3053H98.1638V0.500488ZM109.301 21.2457C112.87 21.2457 115.496 18.813 115.496 13.3606C115.496 7.90828 112.713 5.55586 108.908 5.55586H104.596V21.2415H109.301V21.2457Z" fill="white"/>
<path id="Vector_5" d="M128.555 13.2846C128.555 5.011 134.595 0.107666 142.399 0.107666C150.204 0.107666 156.244 5.011 156.244 13.2846C156.244 21.5582 150.204 26.698 142.399 26.698C134.595 26.698 128.555 21.7186 128.555 13.2846ZM149.575 13.3226C149.575 8.18697 146.475 5.16304 142.399 5.16304C138.324 5.16304 135.224 8.18275 135.224 13.3226C135.224 18.4624 138.324 21.6384 142.399 21.6384C146.475 21.6384 149.575 18.5384 149.575 13.3226Z" fill="white"/>
<path id="Vector_6" d="M160.716 0.500488H168.048L174.949 20.5784H175.029L181.774 0.500488H188.362L179.945 22.5718C179.088 24.8229 176.93 26.3053 174.522 26.3053C172.111 26.3053 169.953 24.8144 169.095 22.5634L160.716 0.500488Z" fill="white"/>
<path id="Vector_7" d="M207.541 21.0515H197.227L195.462 26.3053H188.873L197.396 4.2298C198.266 1.98296 200.428 0.496338 202.836 0.496338C205.247 0.496338 207.41 1.97874 208.275 4.2298L216.798 26.3053H209.306L207.541 21.0515ZM206.206 17.0519L202.401 5.75866H202.32L198.557 17.0519H206.206Z" fill="white"/>
</g>
<g id="Group_3">
<path id="Vector_8" d="M0 35.698H12.3998V38.4559H3.3069V43.6379H10.5289V45.7876H3.3069V51.0795H12.649V53.8374H0V35.7022V35.698Z" fill="white"/>
<path id="Vector_9" d="M18.1351 46.9997V37.1761C18.1351 36.361 18.794 35.7021 19.6091 35.7021H19.9385C20.7536 35.7021 21.4125 36.361 21.4125 37.1761V46.9448C21.4125 49.7026 23.313 51.2695 26.2609 51.2695C29.2088 51.2695 31.1093 49.6984 31.1093 46.9448V37.1761C31.1093 36.361 31.7682 35.7021 32.5833 35.7021C33.3984 35.7021 34.0572 36.361 34.0572 37.1761V46.9997C34.0572 51.354 30.9995 54.1118 26.1215 54.1118C21.2435 54.1118 18.1309 51.354 18.1309 46.9997H18.1351Z" fill="white"/>
<path id="Vector_10" d="M40.5106 37.7083C40.5106 36.5976 41.4101 35.698 42.5209 35.698H48.4758C53.1342 35.698 55.5289 37.7083 55.5289 40.9603C55.5289 43.3043 54.511 44.9007 52.3867 45.285V45.34C54.5913 45.6694 55.4191 47.2151 55.4191 49.3902V53.8289H52.0826V49.4451C52.0826 47.6248 51.3393 46.6323 48.9151 46.6323H43.8175V53.8247H40.5106V37.6999V37.7083ZM48.5307 44.4615C51.2041 44.4615 52.3613 43.3043 52.3613 41.3742C52.3613 39.5539 51.0943 38.4516 48.4463 38.4516H43.8175V44.4615H48.5307Z" fill="white"/>
<path id="Vector_11" d="M61.0699 44.6854C61.0699 38.9248 65.2046 35.4236 70.4669 35.4236C75.7293 35.4236 79.8935 38.9248 79.8935 44.6854C79.8935 50.4461 75.7588 54.112 70.4669 54.112C65.1751 54.112 61.0699 50.5559 61.0699 44.6854ZM76.5317 44.6854C76.5317 40.6352 73.833 38.1814 70.4669 38.1814C67.1009 38.1814 64.4317 40.6352 64.4317 44.6854C64.4317 48.7356 67.1305 51.3541 70.4669 51.3541C73.8034 51.3541 76.5317 48.8455 76.5317 44.6854Z" fill="white"/>
<path id="Vector_12" d="M85.8188 37.5056C85.8188 36.5089 86.6297 35.698 87.6264 35.698H93.3153C97.809 35.698 100.453 37.9575 100.453 42.0077C100.453 46.0579 98.0835 48.2076 93.7292 48.2076H89.1257V53.8289H85.8188V37.5014V37.5056ZM93.5349 45.8679C95.9338 45.8679 97.3106 44.6558 97.3106 42.1766C97.3106 39.6975 95.8494 38.4559 93.2055 38.4559H89.1257V45.8679H93.5349Z" fill="white"/>
<path id="Vector_13" d="M106.294 35.698H118.694V38.4559H109.601V43.6379H116.823V45.7876H109.601V51.0795H118.943V53.8374H106.294V35.7022V35.698Z" fill="white"/>
<path id="Vector_14" d="M136.774 49.7534H128.314L126.773 53.8331H123.356L130.004 37.514C130.451 36.416 131.516 35.698 132.703 35.698H132.808C133.995 35.698 135.059 36.416 135.507 37.514L142.129 53.8289H138.298L136.782 49.7491L136.774 49.7534ZM135.946 47.5488L132.584 38.5108H132.529L129.138 47.5488H135.946Z" fill="white"/>
<path id="Vector_15" d="M147.522 35.698H152.485L161.109 49.4789H161.164L161.109 35.698H164.221V53.8331H160.306L150.635 38.4559H150.605L150.635 53.8331H147.522V35.698Z" fill="white"/>
<path id="Vector_16" d="M183.02 49.7534H174.56L173.019 53.8331H169.602L176.271 37.4549C176.702 36.3949 177.736 35.698 178.881 35.698H179.109C180.258 35.698 181.288 36.3949 181.723 37.4591L188.366 53.8331H184.536L183.02 49.7534ZM182.192 47.5488L178.83 38.5108H178.775L175.384 47.5488H182.192Z" fill="white"/>
<path id="Vector_17" d="M176.381 31.7787H176.385C176.799 31.7618 177.183 31.9941 177.352 32.3742C177.563 32.8557 178.057 33.2611 178.986 33.2611C179.916 33.2611 180.414 32.8599 180.621 32.3826C180.79 31.9983 181.174 31.7618 181.592 31.7787C182.314 31.8083 182.787 32.5642 182.479 33.2146C182.006 34.2071 180.946 35.0814 178.986 35.0814C177.027 35.0814 175.971 34.2071 175.494 33.2146C175.181 32.5642 175.658 31.8083 176.381 31.7787Z" fill="white"/>
</g>
</g>
</g>
</g>
<defs>
<clipPath id="clip0_12_28">
<rect width="216.798" height="54" fill="white" transform="translate(0 0.107666)"/>
</clipPath>
</defs>
</svg>
