<svg width="30" height="21" viewBox="0 0 30 21" fill="none" xmlns="http://www.w3.org/2000/svg">
<rect y="0.107666" width="30" height="20" rx="10" fill="white"/>
<g clip-path="url(#clip0_3_2564)">
<path d="M13.4584 14.2327C12.375 14.2327 11.25 13.941 10.25 13.3577C10.0834 13.2743 10 13.066 10.0417 12.8993C10.0834 12.7327 10.25 12.6077 10.4167 12.6077C11.125 12.6493 11.8334 12.4827 12.4584 12.191C10.9167 11.2327 10.5 9.89933 10.4584 8.85767C10.4167 7.64933 10.8334 6.64933 10.875 6.60767C10.9167 6.48267 11.0417 6.35767 11.2084 6.35767C11.375 6.35767 11.5 6.39933 11.5834 6.52433C12.2917 7.52433 13.375 8.14933 14.5834 8.23267C14.5834 7.566 14.875 6.941 15.375 6.48267C16.25 5.73267 17.5417 5.73267 18.4167 6.48267C18.75 6.35767 19.0834 6.191 19.375 5.98267C19.5 5.89933 19.7084 5.89933 19.8334 5.98267C19.9584 6.066 20.0417 6.27433 20 6.441C19.875 7.02433 19.5834 7.566 19.1667 8.02433C19.1667 8.10767 19.1667 8.14933 19.1667 8.23267C19.1667 10.5243 18.1667 12.441 16.375 13.441C15.5 13.9827 14.5 14.2327 13.4584 14.2327ZM12.0834 13.2327C13.4584 13.566 14.8334 13.3993 16 12.7327C17.5 11.8577 18.375 10.191 18.375 8.23267C18.375 8.14933 18.375 8.066 18.3334 7.98267C18.2917 7.85767 18.3334 7.691 18.4584 7.60767C18.5417 7.52433 18.625 7.39933 18.7084 7.316C18.625 7.35767 18.5 7.39933 18.4167 7.39933C18.25 7.441 18.0834 7.39933 18 7.27433C17.4584 6.691 16.5417 6.60767 15.9584 7.14933C15.5834 7.39933 15.4167 7.816 15.4167 8.23267V8.64933C15.4167 8.85767 15.25 9.066 15 9.066C13.625 9.10767 12.3334 8.566 11.4167 7.60767C11.1667 8.691 11.0834 10.7327 13.5 11.7743C13.625 11.8577 13.75 11.9827 13.75 12.1493C13.75 12.316 13.7084 12.441 13.5834 12.5243C13.0834 12.8577 12.5834 13.1077 12.0834 13.2327Z" fill="#5582F9"/>
</g>
<defs>
<clipPath id="clip0_3_2564">
<rect width="10" height="10" fill="white" transform="translate(10 5.10767)"/>
</clipPath>
</defs>
</svg>
